<svg width="24" height="24" viewBox="0 0 24 24" fill="none" xmlns="http://www.w3.org/2000/svg">
<g opacity="0.3">
<path d="M20.2611 6.18194C19.7892 5.70977 19.2289 5.3352 18.6122 5.07965C17.9956 4.82409 17.3346 4.69256 16.6671 4.69256C15.9995 4.69256 15.3385 4.82409 14.7219 5.07965C14.1052 5.3352 13.5449 5.70977 13.0731 6.18194L12.0941 7.16094L11.1151 6.18194C10.645 5.70129 10.0843 5.31866 9.46536 5.0562C8.84643 4.79374 8.18158 4.65666 7.50931 4.65291C6.83704 4.64916 6.1707 4.77881 5.54888 5.03434C4.92705 5.28988 4.3621 5.66623 3.88673 6.14161C3.41135 6.61698 3.035 7.18194 2.77946 7.80376C2.52392 8.42558 2.39428 9.09192 2.39803 9.76419C2.40178 10.4365 2.53885 11.1013 2.80131 11.7202C3.06377 12.3392 3.44641 12.8999 3.92706 13.3699L4.90606 14.3489L12.0941 21.5369L19.2821 14.3489L20.2611 13.3699C20.7332 12.8981 21.1078 12.3378 21.3633 11.7211C21.6189 11.1045 21.7504 10.4435 21.7504 9.77594C21.7504 9.10841 21.6189 8.44742 21.3633 7.83075C21.1078 7.21407 20.7332 6.6538 20.2611 6.18194V6.18194Z" stroke="#303030" stroke-width="1.5" stroke-linecap="round" stroke-linejoin="round"/>
</g>
</svg>
